<?xml version="1.0" standalone="no"?>
<!DOCTYPE svg PUBLIC "-//W3C//DTD SVG 20010904//EN"
 "http://www.w3.org/TR/2001/REC-SVG-20010904/DTD/svg10.dtd">
<svg version="1.0" xmlns="http://www.w3.org/2000/svg"
 width="500.000000pt" height="500.000000pt" viewBox="0 0 500.000000 500.000000"
 preserveAspectRatio="xMidYMid meet">

<g transform="translate(0.000000,500.000000) scale(0.100000,-0.100000)"
fill="#000000" stroke="none">
<path d="M0 2500 l0 -2500 2500 0 2500 0 0 2500 0 2500 -2500 0 -2500 0 0
-2500z m3776 1093 c162 -90 266 -301 236 -479 -22 -130 -94 -243 -199 -311
-29 -18 -53 -38 -53 -44 0 -45 127 31 190 114 145 193 139 442 -15 639 -47 59
-53 76 -33 96 22 22 46 12 90 -37 126 -140 176 -349 128 -535 -26 -102 -62
-166 -138 -248 -59 -62 -70 -88 -39 -88 33 0 153 154 191 244 22 52 46 176 46
236 0 90 -29 200 -77 297 -39 78 -44 95 -33 108 25 31 62 14 96 -44 83 -139
116 -351 79 -516 -23 -106 -91 -235 -166 -318 -40 -44 -58 -72 -52 -78 5 -5
17 -7 27 -3 32 12 128 140 171 229 87 180 98 354 34 578 -15 53 -6 82 26 82
42 0 79 -101 94 -259 23 -241 -53 -465 -217 -638 -36 -38 -52 -63 -48 -73 8
-23 34 -7 90 56 72 80 140 199 176 307 29 86 33 112 37 232 5 170 7 180 37
180 43 0 51 -24 51 -149 -1 -116 -20 -233 -52 -313 -15 -37 -41 -55 -30 -20
31 95 48 171 57 256 11 113 3 201 -19 201 -12 0 -15 -24 -16 -120 -3 -177 -41
-310 -129 -458 -43 -72 -134 -180 -167 -198 -26 -14 -59 5 -59 34 0 14 17 39
41 62 144 139 229 349 229 565 0 144 -40 310 -76 310 -18 0 -18 1 15 -124 28
-106 29 -262 1 -372 -27 -109 -87 -225 -160 -311 -62 -74 -98 -95 -125 -73
-25 21 -17 39 46 108 74 82 143 217 165 322 23 108 14 251 -21 355 -30 92 -81
185 -99 185 -26 0 -24 -14 9 -74 61 -110 80 -186 80 -321 0 -135 -10 -184 -63
-293 -41 -86 -152 -212 -186 -212 -25 0 -46 17 -46 38 0 8 29 45 64 82 74 79
120 165 141 265 27 129 11 247 -50 372 -40 81 -115 170 -133 159 -18 -11 -15
-17 30 -71 57 -69 106 -178 120 -269 25 -160 -30 -326 -146 -440 -98 -96 -175
-120 -184 -58 -2 15 11 30 56 60 76 52 118 101 156 182 25 54 31 80 34 157 7
164 -54 296 -180 389 -65 48 -103 63 -120 46 -7 -7 10 -23 56 -52 246 -156
285 -462 80 -649 -89 -82 -188 -108 -208 -55 -7 19 19 54 41 54 27 0 94 41
133 81 84 86 105 243 48 354 -31 60 -103 129 -161 155 -125 55 -283 20 -373
-82 -100 -114 -109 -284 -22 -420 32 -50 34 -84 6 -102 -26 -16 -69 31 -109
117 -32 68 -34 78 -34 182 0 98 3 116 27 167 32 69 77 130 89 122 5 -3 -2 -20
-16 -38 -13 -17 -37 -59 -52 -91 -25 -53 -28 -72 -28 -161 0 -95 2 -104 37
-175 21 -41 46 -83 57 -93 19 -17 21 -17 27 -2 4 9 -6 35 -24 63 -121 190 -59
429 138 530 48 25 66 28 145 28 78 0 97 -4 146 -28 163 -80 242 -272 179 -439
-27 -73 -103 -150 -174 -177 -54 -20 -75 -51 -34 -51 70 1 186 93 234 187 27
53 29 67 29 163 0 93 -3 112 -27 162 -33 71 -98 142 -165 180 -63 35 -77 51
-68 78 9 29 52 26 111 -7z m-148 -138 c75 -23 131 -70 169 -144 89 -172 -8
-369 -191 -388 -75 -8 -137 11 -192 60 -105 92 -123 227 -44 334 60 82 185
112 275 66 170 -88 163 -336 -11 -393 -118 -39 -248 58 -248 185 0 167 198
227 298 92 16 -21 21 -43 21 -87 0 -51 -4 -63 -30 -90 -60 -63 -151 -61 -199
3 -32 44 -39 80 -22 121 31 74 105 89 162 32 40 -40 45 -85 14 -116 -57 -57
-160 10 -111 71 19 24 55 20 65 -8 10 -24 -4 -31 -19 -9 -15 20 -35 14 -35
-13 0 -44 60 -56 86 -16 19 29 12 57 -23 85 -33 26 -63 25 -97 -1 -21 -17 -26
-29 -26 -65 0 -135 200 -142 216 -9 14 111 -117 194 -213 135 -89 -54 -83
-205 10 -266 127 -84 286 24 263 179 -27 181 -273 230 -370 73 -25 -39 -30
-58 -30 -109 1 -185 197 -296 354 -199 160 99 140 352 -36 438 -228 111 -460
-124 -355 -361 38 -85 112 -146 201 -167 28 -6 50 -15 50 -20 0 -17 -57 -7
-115 20 -106 51 -173 148 -183 268 -7 92 17 155 88 226 83 82 169 105 278 73z
m922 -477 c-11 -64 -23 -88 -33 -71 -4 6 25 163 34 183 1 3 4 -6 6 -20 3 -14
0 -55 -7 -92z m-176 -286 c-37 -64 -112 -158 -168 -210 -44 -41 -51 -62 -22
-62 15 0 89 69 152 143 57 65 107 62 90 -7 -7 -29 -139 -173 -144 -157 -2 6
26 43 62 82 60 65 83 109 56 109 -11 0 -100 -90 -100 -101 0 -4 -25 -28 -55
-53 -58 -50 -88 -55 -100 -15 -5 15 11 38 67 98 71 76 97 110 154 201 36 59
44 34 8 -28z m-2602 -124 c15 -15 18 -23 9 -26 -7 -2 -18 1 -24 7 -6 6 -22 11
-35 11 -35 0 -26 -41 11 -51 56 -15 74 -51 41 -83 -29 -29 -104 -11 -104 25 0
15 27 10 34 -7 9 -23 50 -14 54 13 2 17 -3 23 -28 28 -58 13 -75 50 -40 85 26
26 55 25 82 -2z m-1042 -73 c0 -69 -3 -85 -15 -85 -12 0 -15 16 -15 85 0 69 3
85 15 85 12 0 15 -16 15 -85z m212 23 l43 -63 3 63 c4 93 22 75 22 -23 0 -61
-3 -85 -12 -85 -7 0 -31 28 -53 62 l-40 63 -3 -63 c-2 -46 -7 -62 -17 -62 -12
0 -15 17 -15 85 0 106 12 110 72 23z m257 -12 l25 -69 25 72 c14 39 31 71 38
71 17 0 18 4 -18 -90 -22 -57 -36 -80 -46 -78 -9 2 -28 36 -44 78 -32 83 -34
93 -17 88 6 -2 23 -35 37 -72z m331 64 c0 -5 -16 -10 -35 -10 -31 0 -35 -3
-35 -25 0 -21 5 -25 29 -25 17 0 33 -4 36 -10 4 -6 -8 -10 -29 -10 -33 0 -36
-2 -36 -30 0 -28 3 -30 35 -30 19 0 35 -4 35 -10 0 -5 -20 -10 -45 -10 l-45 0
0 85 0 85 45 0 c25 0 45 -4 45 -10z m510 0 c0 -5 -11 -10 -25 -10 -24 0 -25
-2 -25 -75 0 -43 -4 -75 -10 -75 -6 0 -10 32 -10 75 0 73 -1 75 -25 75 -14 0
-25 5 -25 10 0 6 27 10 60 10 33 0 60 -4 60 -10z m244 -12 c9 -12 16 -26 16
-30 0 -19 -43 -48 -70 -48 -28 0 -30 -3 -30 -35 0 -19 -4 -35 -10 -35 -6 0
-10 35 -10 85 l0 85 44 0 c35 0 48 -5 60 -22z m254 10 c18 -18 14 -56 -7 -74
-18 -16 -18 -17 1 -50 17 -30 18 -34 4 -34 -9 0 -24 16 -33 35 -9 19 -23 35
-30 35 -8 0 -13 -13 -13 -35 0 -24 -5 -35 -15 -35 -12 0 -15 16 -15 85 l0 85
48 0 c26 0 53 -5 60 -12z m182 -73 c0 -69 -3 -85 -15 -85 -12 0 -15 16 -15 85
0 69 3 85 15 85 12 0 15 -16 15 -85z m182 25 c10 -30 22 -58 26 -62 5 -5 19
21 31 57 13 37 29 65 37 65 10 0 6 -20 -16 -81 -17 -44 -30 -82 -30 -85 0 -2
-8 -4 -17 -4 -13 0 -26 23 -49 86 -26 68 -29 84 -16 82 8 -2 23 -27 34 -58z
m339 23 c6 -21 20 -59 30 -85 15 -39 16 -48 5 -48 -8 0 -18 9 -21 20 -5 16
-15 20 -46 20 -27 0 -39 -4 -39 -14 0 -16 -18 -31 -27 -23 -3 3 8 42 24 86 32
93 54 105 74 44z m289 27 c0 -5 -11 -10 -25 -10 -24 0 -25 -2 -25 -75 0 -43
-4 -75 -10 -75 -6 0 -10 32 -10 75 0 73 -1 75 -25 75 -14 0 -25 5 -25 10 0 6
27 10 60 10 33 0 60 -4 60 -10z m230 0 c0 -5 -16 -10 -35 -10 -31 0 -35 -3
-35 -25 0 -21 5 -25 29 -25 17 0 33 -4 36 -10 4 -6 -8 -10 -29 -10 -33 0 -36
-2 -36 -30 0 -28 3 -30 35 -30 19 0 35 -4 35 -10 0 -5 -20 -10 -45 -10 l-45 0
0 85 0 85 45 0 c25 0 45 -4 45 -10z m-2520 -350 c24 -24 24 -29 4 -58 -10 -14
-25 -22 -45 -22 -28 0 -29 1 -29 50 0 47 2 50 25 50 14 0 34 -9 45 -20z m133
10 c-28 -12 -30 -30 -3 -30 11 0 20 -4 20 -10 0 -5 -9 -10 -20 -10 -27 0 -25
-18 3 -30 21 -8 21 -9 -5 -9 -27 -1 -28 1 -28 49 0 48 1 50 28 49 26 0 26 -1
5 -9z m160 3 c-8 -3 -13 -23 -13 -49 0 -24 -4 -44 -10 -44 -5 0 -10 20 -10 44
0 26 -5 46 -12 49 -7 3 3 5 22 5 19 0 29 -2 23 -5z m130 -3 c-13 -5 -23 -13
-23 -19 0 -5 10 -12 23 -16 l22 -8 -22 -4 c-13 -2 -23 -11 -23 -18 0 -7 10
-16 23 -18 19 -4 18 -4 -5 -6 -27 -1 -28 1 -28 49 0 48 1 50 28 49 26 0 26 -1
5 -9z m187 -5 c14 -17 3 -20 -19 -6 -20 13 -51 -5 -51 -28 0 -29 28 -47 51
-33 26 16 34 15 19 -3 -18 -22 -56 -18 -74 6 -34 49 36 110 74 64z m148 4
c-12 -7 -19 -24 -20 -52 l-1 -42 -4 40 c-2 22 -11 46 -20 53 -14 10 -11 12 23
12 31 -1 36 -3 22 -11z m112 -39 c0 -27 -4 -50 -10 -50 -5 0 -10 23 -10 50 0
28 5 50 10 50 6 0 10 -22 10 -50z m110 8 l13 -43 15 43 c9 23 20 42 25 42 5 0
6 -6 3 -12 -2 -7 -10 -30 -17 -50 -7 -21 -17 -38 -24 -38 -6 0 -17 17 -24 38
-8 20 -16 43 -18 50 -3 6 -1 12 4 12 6 0 16 -19 23 -42z m183 35 c-25 -5 -32
-33 -8 -33 8 0 15 -4 15 -10 0 -5 -7 -10 -15 -10 -24 0 -17 -28 8 -33 16 -3
13 -5 -10 -6 l-33 -1 0 50 0 50 33 -1 c23 -1 26 -3 10 -6z m155 -13 c4 -13 3
-13 -10 -2 -13 10 -18 10 -24 1 -4 -7 -3 -14 3 -16 27 -9 44 -30 37 -46 -8
-22 -55 -19 -62 3 -4 12 -2 13 9 3 18 -18 39 -16 39 2 0 8 -6 15 -14 15 -20 0
-39 27 -32 46 7 19 47 15 54 -6z m262 5 c16 -20 5 -45 -20 -45 -13 0 -20 -7
-20 -20 0 -11 -4 -20 -10 -20 -5 0 -10 23 -10 50 0 46 2 50 24 50 13 0 29 -7
36 -15z m151 -1 c9 -12 10 -20 2 -33 -7 -11 -8 -23 -1 -34 14 -26 -7 -21 -25
6 l-16 22 0 -22 c-2 -47 -21 -21 -21 27 0 46 2 50 24 50 13 0 29 -7 37 -16z
m106 -61 c-2 -16 -4 -3 -4 27 0 30 2 43 4 28 2 -16 2 -40 0 -55z m135 7 c3 0
9 13 13 30 6 29 25 52 25 31 0 -19 -32 -91 -40 -91 -9 0 -40 75 -39 93 0 6 8
-5 17 -25 10 -21 20 -38 24 -38z m191 13 c10 -24 12 -43 7 -43 -6 0 -10 5 -10
10 0 6 -11 10 -25 10 -14 0 -25 -4 -25 -10 0 -5 -4 -10 -10 -10 -5 0 -3 18 5
41 26 73 31 73 58 2z m167 37 c24 -24 24 -29 4 -58 -10 -14 -25 -22 -45 -22
-28 0 -29 1 -29 50 0 47 2 50 25 50 14 0 34 -9 45 -20z m171 10 c22 -12 26
-59 7 -78 -30 -30 -95 7 -81 47 15 41 37 50 74 31z m167 -8 c3 -11 0 -12 -16
-3 -14 7 -23 8 -27 1 -3 -5 6 -15 20 -22 34 -15 31 -53 -4 -53 -13 0 -27 7
-29 15 -4 13 -3 13 11 2 9 -8 21 -11 27 -7 17 11 11 23 -15 29 -24 6 -34 34
-18 50 11 11 46 2 51 -12z"/>
<path d="M2200 2531 c0 -26 4 -31 23 -31 57 1 66 53 9 58 -30 3 -32 1 -32 -27z"/>
<path d="M2460 2529 c0 -27 3 -30 28 -27 21 2 28 9 30 31 3 24 0 27 -27 27
-28 0 -31 -3 -31 -31z"/>
<path d="M3197 2510 c-13 -30 -13 -35 -1 -38 34 -8 42 1 29 38 l-13 35 -15
-35z"/>
<path d="M1190 2190 c0 -42 17 -53 40 -25 17 20 9 46 -17 56 -21 8 -23 6 -23
-31z"/>
<path d="M2780 2210 c0 -11 7 -20 15 -20 8 0 15 6 15 14 0 8 -7 16 -15 20 -10
4 -15 -1 -15 -14z"/>
<path d="M2930 2210 c0 -11 7 -20 15 -20 8 0 15 6 15 14 0 8 -7 16 -15 20 -10
4 -15 -1 -15 -14z"/>
<path d="M3366 2195 c-9 -23 -8 -25 9 -25 17 0 19 9 6 28 -7 11 -10 10 -15 -3z"/>
<path d="M3520 2190 c0 -42 17 -53 40 -25 17 20 9 46 -17 56 -21 8 -23 6 -23
-31z"/>
<path d="M3695 2216 c-20 -15 -17 -44 7 -59 12 -8 21 -7 32 2 36 30 -1 85 -39
57z"/>
</g>
</svg>
