<?xml version="1.0" encoding="UTF-8" standalone="no"?>
<!-- Created with Inkscape (http://www.inkscape.org/) -->

<svg
   xmlns:dc="http://purl.org/dc/elements/1.1/"
   xmlns:cc="http://creativecommons.org/ns#"
   xmlns:rdf="http://www.w3.org/1999/02/22-rdf-syntax-ns#"
   xmlns:svg="http://www.w3.org/2000/svg"
   xmlns="http://www.w3.org/2000/svg"
   xmlns:sodipodi="http://sodipodi.sourceforge.net/DTD/sodipodi-0.dtd"
   xmlns:inkscape="http://www.inkscape.org/namespaces/inkscape"
   width="201mm"
   height="105mm"
   viewBox="0 0 201 105"
   version="1.1"
   id="svg8"
   inkscape:version="0.92.4 (5da689c313, 2019-01-14)"
   sodipodi:docname="logo_investprivate.svg">
  <defs
     id="defs2" />
  <sodipodi:namedview
     id="base"
     pagecolor="#ffffff"
     bordercolor="#666666"
     borderopacity="1.0"
     inkscape:pageopacity="0.0"
     inkscape:pageshadow="2"
     inkscape:zoom="0.7"
     inkscape:cx="301.4606"
     inkscape:cy="337.29644"
     inkscape:document-units="mm"
     inkscape:current-layer="layer3"
     showgrid="false"
     inkscape:window-width="1920"
     inkscape:window-height="1001"
     inkscape:window-x="-9"
     inkscape:window-y="-9"
     inkscape:window-maximized="1"
     showguides="false" />
  <metadata
     id="metadata5">
    <rdf:RDF>
      <cc:Work
         rdf:about="">
        <dc:format>image/svg+xml</dc:format>
        <dc:type
           rdf:resource="http://purl.org/dc/dcmitype/StillImage" />
        <dc:title></dc:title>
      </cc:Work>
    </rdf:RDF>
  </metadata>
  <g
     inkscape:groupmode="layer"
     id="layer4"
     inkscape:label="Capa 4"
     transform="translate(0,-192)" />
  <g
     inkscape:label="Capa 1"
     inkscape:groupmode="layer"
     id="layer1"
     transform="translate(0,-192)" />
  <g
     inkscape:groupmode="layer"
     id="layer3"
     inkscape:label="Capa 3"
     transform="translate(0,-192)">
    <g
       id="g935"
       transform="matrix(2.2381782,0,0,2.2381782,-139.58992,-25.061952)">
      <path
         id="path815"
         d="m 132.39683,100.45146 c 3.57396,1.80877 5.94934,6.6031 5.25198,10.54754 -0.50123,2.85481 -2.07028,5.27377 -4.3149,6.71207 -0.63198,0.39226 -1.155,0.82811 -1.155,0.95887 0,0.95886 2.5715,-0.50123 3.98801,-2.28821 3.31245,-4.18415 3.26887,-9.58868 -0.10896,-14.01254 -1.08962,-1.41651 -1.22037,-1.76519 -0.78453,-2.20104 0.47944,-0.479432 1.00246,-0.261507 1.96132,0.80632 4.31491,4.79434 4.24953,12.33452 -0.17434,16.99811 -0.76273,0.82811 -1.39471,1.61264 -1.39471,1.74339 0,1.06783 2.61509,-1.28575 3.87905,-3.50858 2.28821,-3.98802 2.33179,-8.78235 0.13076,-13.20622 -0.82812,-1.67802 -0.95887,-2.07028 -0.71915,-2.35358 0.52301,-0.653775 1.32934,-0.28331 2.07028,0.98065 2.39717,4.00981 2.72405,9.95915 0.74094,14.1433 -0.78453,1.67802 -1.76519,3.09453 -3.02915,4.46745 -0.67557,0.74094 -0.89349,1.11141 -0.74094,1.26396 0.37047,0.37047 1.02424,-0.0872 2.24462,-1.61264 1.52547,-1.85236 2.94198,-4.83792 3.39962,-7.12613 0.45764,-2.31 0.32689,-5.73141 -0.32689,-7.99782 -0.5666,-1.96132 -0.5666,-2.17925 0,-2.46255 0.67557,-0.37047 1.155,0.19613 1.72161,2.09208 1.78698,6.0365 0.26151,12.6832 -3.96623,17.19423 -0.82811,0.89349 -1.26396,1.52547 -1.17679,1.7434 0.19613,0.50122 0.39227,0.41405 1.48189,-0.71916 2.33179,-2.37537 4.16235,-5.84037 4.8815,-9.1964 0.15255,-0.78453 0.3051,-2.50613 0.3051,-3.85727 0,-1.32933 0.0654,-2.5715 0.13075,-2.76764 0.17434,-0.43584 1.04604,-0.45764 1.39472,-0.0218 0.41406,0.50123 0.52302,3.02915 0.23971,5.2084 -0.30509,2.17924 -1.22037,5.36093 -1.59084,5.36093 -0.13076,0 -0.15255,-0.17434 -0.0654,-0.39226 1.28575,-3.35604 1.78698,-9.82839 0.76274,-10.02452 -0.28331,-0.0436 -0.32689,0.37047 -0.34868,2.61509 -0.0436,4.92509 -1.59085,9.08745 -4.72896,12.705 -1.39472,1.59084 -1.93953,1.96131 -2.52792,1.63443 -0.74095,-0.39227 -0.54482,-1.13321 0.5448,-2.17925 2.11387,-2.02669 3.90085,-5.40452 4.55462,-8.54263 0.78453,-3.70472 -0.0654,-10.41679 -1.32933,-10.41679 -0.39227,0 -0.39227,-0.0218 0.32688,2.70226 0.32689,1.24217 0.45764,2.37538 0.45764,4.0534 0,4.0316 -1.17679,7.40943 -3.70471,10.52575 -1.41651,1.76518 -2.22283,2.33179 -2.78943,1.96131 -0.69736,-0.43584 -0.52302,-0.93707 0.82811,-2.39716 1.61264,-1.78698 3.13811,-4.70717 3.61755,-7.03896 0.45764,-2.13566 0.30509,-5.42632 -0.34868,-7.51839 -0.56661,-1.78698 -1.87415,-4.24953 -2.26642,-4.24953 -0.5666,0 -0.52302,0.2833 0.32689,1.91774 2.92019,5.66603 2.02669,12.13838 -2.26642,16.54046 -1.11141,1.155 -1.76518,1.41651 -2.2882,0.89349 -0.47943,-0.47944 -0.2833,-0.8717 1.1332,-2.35359 0.78453,-0.82811 1.69982,-2.09207 2.07029,-2.8766 0.74094,-1.50368 1.32934,-3.87905 1.32934,-5.40452 0,-2.68047 -1.37293,-6.27623 -3.11632,-8.17217 -0.78453,-0.8499 -1.04604,-1.02424 -1.26396,-0.82811 -0.19614,0.21792 -0.13076,0.43585 0.37047,1.04604 2.13566,2.63688 3.02915,5.05584 3.02915,8.0632 -0.0218,3.50858 -1.52547,6.6249 -4.22774,8.6516 -1.56905,1.22037 -2.31,1.46009 -2.78943,0.98066 -0.50123,-0.50123 -0.17434,-1.13321 0.98066,-1.87415 1.85236,-1.17679 3.13811,-2.85481 3.85726,-4.99047 0.2833,-0.91528 0.34868,-1.67802 0.2833,-3.37783 -0.0654,-1.93953 -0.17434,-2.39717 -0.76273,-3.63934 -0.89349,-1.83056 -2.0267,-3.13811 -3.63934,-4.18415 -1.22038,-0.78452 -2.31,-1.06783 -2.31,-0.61018 0,0.10896 0.63198,0.61018 1.41651,1.11141 2.48434,1.56906 3.96623,3.70471 4.46745,6.45056 0.71915,4.07519 -1.93952,8.28113 -6.03651,9.5233 -0.58839,0.19613 -1.4383,-0.54481 -1.24217,-1.06783 0.0872,-0.19613 0.74095,-0.63198 1.48189,-0.95887 1.54727,-0.69735 2.72406,-1.78698 3.44321,-3.13811 0.41406,-0.76273 0.50122,-1.26396 0.50122,-2.98556 0,-1.83057 -0.0654,-2.20104 -0.58839,-3.15991 -0.74094,-1.41651 -2.17925,-2.78943 -3.55217,-3.42141 -1.50368,-0.67557 -4.14056,-0.67557 -5.60066,-0.0218 -4.14056,1.87415 -5.53528,6.99537 -2.96377,11.00518 0.67557,1.08962 0.74094,1.83057 0.13075,2.22283 -0.2833,0.17434 -0.47943,0.10896 -0.91528,-0.2833 -0.67556,-0.63198 -1.7216,-2.65868 -2.09207,-3.98802 -0.43585,-1.63443 -0.19613,-4.38028 0.47943,-5.88396 0.69736,-1.48188 1.67802,-2.83301 1.93953,-2.65868 0.10896,0.0654 -0.0436,0.43585 -0.34868,0.82812 -0.2833,0.37047 -0.80632,1.28575 -1.13321,1.98311 -0.54481,1.155 -0.61019,1.54726 -0.61019,3.48679 0,2.0049 0.0654,2.2882 0.74095,3.7483 0.8499,1.80877 1.67802,2.74585 1.89594,2.17924 0.0872,-0.21792 -0.13076,-0.78452 -0.52302,-1.39471 -2.68047,-4.20594 -1.19858,-9.5233 3.20349,-11.59358 1.02425,-0.47944 1.52547,-0.5666 3.07273,-0.5666 1.56906,0 2.0267,0.0872 3.09453,0.61018 4.18415,2.04849 5.66603,7.4966 3.02915,11.09236 -0.78453,1.04603 -2.09207,2.04849 -3.22528,2.44075 -0.95887,0.32689 -1.26396,1.00245 -0.45764,1.00245 1.54726,-0.0218 4.05339,-2.0267 5.09943,-4.07518 0.5666,-1.15501 0.63198,-1.4601 0.63198,-3.55217 0,-2.13566 -0.0436,-2.39717 -0.69736,-3.70472 -0.78453,-1.59084 -2.04849,-2.92019 -3.63933,-3.85726 -1.30755,-0.76274 -1.63444,-1.19858 -1.24217,-1.67802 0.41405,-0.47943 0.95886,-0.435848 2.20103,0.19614 z m -3.11632,3.05093 c 4.09698,1.22038 5.775,6.25444 3.20349,9.63226 -1.22037,1.61265 -3.77009,2.39717 -5.86216,1.80878 -3.05095,-0.84991 -4.90331,-4.88151 -3.50859,-7.58377 1.02425,-1.98312 3.35604,-3.13811 5.36094,-2.65868 3.81368,0.91528 5.25198,5.73141 2.41896,8.12858 -1.35113,1.13321 -2.89839,1.28576 -4.55462,0.45764 -1.48188,-0.74094 -2.31,-2.07028 -2.31,-3.70471 0,-3.57396 4.3367,-4.9033 6.49415,-1.98311 0.34868,0.47943 0.45764,0.93707 0.45764,1.93952 0,1.22038 -0.0436,1.35113 -0.80632,2.0267 -1.59085,1.48189 -3.53037,1.13321 -4.48924,-0.80632 -0.45764,-0.89349 -0.47943,-1.13321 -0.26151,-1.78698 0.52302,-1.61264 2.22283,-2.15745 3.44321,-1.11142 0.78452,0.65378 1.02424,1.48189 0.69736,2.31 -0.41406,1.00246 -1.87415,1.22038 -2.52793,0.39227 -0.45764,-0.5884 -0.50123,-1.04604 -0.10896,-1.52547 0.41405,-0.52302 1.19858,-0.43585 1.41651,0.17434 0.19613,0.52301 -0.0436,0.63198 -0.39227,0.17433 -0.32688,-0.43585 -0.78453,-0.2833 -0.78453,0.3051 0,0.89349 1.52548,1.26396 1.96133,0.47943 0.34867,-0.67556 0.26151,-1.11141 -0.41406,-1.78698 -0.76274,-0.74094 -1.48189,-0.80632 -2.28821,-0.17434 -0.45764,0.34868 -0.5666,0.63199 -0.5666,1.39472 0,2.98556 4.35849,3.1599 4.70717,0.17434 0.21792,-1.67802 -1.28576,-3.33425 -3.05095,-3.33425 -2.46254,0 -3.81367,2.70227 -2.50613,5.01227 1.48189,2.61509 5.14302,2.48433 6.51594,-0.23972 1.43831,-2.81122 -0.74094,-6.08009 -4.05339,-6.08009 -4.29311,0 -5.90575,5.27377 -2.50613,8.3465 2.41896,2.17925 6.38518,1.32934 7.7799,-1.67801 1.74339,-3.7483 -1.06783,-8.085 -5.25198,-8.04141 -1.7216,0.0218 -3.00735,0.58839 -4.18415,1.87414 -2.2882,2.48434 -1.96131,6.49415 0.71915,8.84774 0.93708,0.82811 2.52793,1.54726 3.39963,1.54726 0.21792,0 0.39226,0.10896 0.39226,0.23972 0,0.34868 -1.56906,0.0654 -2.63689,-0.47944 -4.0098,-2.0267 -5.14301,-7.1915 -2.26641,-10.39499 1.74339,-1.93953 3.96622,-2.61509 6.36339,-1.89595 z m 20.26697,9.19642 c -0.17434,1.56905 -0.5666,2.94197 -0.78453,2.81122 -0.0872,-0.0654 0,-0.98066 0.21793,-2.0267 0.43585,-2.24462 0.37047,-2.02669 0.54481,-2.02669 0.0872,0 0.0872,0.5666 0.0218,1.24217 z m -3.92264,7.32226 c -0.89349,1.50367 -2.41896,3.4432 -3.61754,4.57641 -1.04604,1.00245 -1.24217,1.46009 -0.5884,1.46009 0.32689,0 1.93953,-1.50368 3.31245,-3.11632 1.24217,-1.41651 2.33179,-1.35113 1.96132,0.15255 -0.15254,0.63198 -3.02915,3.77009 -3.13811,3.42141 -0.0436,-0.13075 0.5666,-0.93707 1.35113,-1.78698 1.35113,-1.46009 1.78698,-2.37537 1.155,-2.37537 -0.15254,0 -0.80632,0.63198 -1.46009,1.41651 -1.02425,1.24217 -2.17925,2.30999 -3.00736,2.81122 -0.30509,0.17434 -1.1332,-0.41406 -1.1332,-0.80632 0,-0.10896 0.71914,-0.95887 1.59084,-1.87415 1.41651,-1.52547 2.35359,-2.76764 3.53038,-4.70717 0.63198,-1.02424 0.65377,-0.21792 0.0436,0.82812 z"
         inkscape:connector-curvature="0"
         sodipodi:nodetypes="cccsccsccsccccccscccccccccscccscccccccscscccccsccsccscccccscccccsccccccscccccccccccsccccscccccsccccccccccsscscccccccccscccscsccscccccssccccccscccsccccsccsccc"
         style="fill:#d9d9d9;fill-opacity:1;stroke:#fffff4;stroke-width:0.02179244;stroke-opacity:1" />
      <text
         inkscape:export-ydpi="96"
         inkscape:export-xdpi="96"
         id="text858"
         y="128.82907"
         x="63.166252"
         style="font-style:normal;font-variant:normal;font-weight:bold;font-stretch:normal;font-size:4.23333311px;line-height:0.25;font-family:'Times New Roman';-inkscape-font-specification:'Times New Roman, Bold';letter-spacing:0px;word-spacing:0px;fill:#ffffff;fill-opacity:1;stroke:none;stroke-width:0.26458332"
         xml:space="preserve"><tspan
           style="font-style:normal;font-variant:normal;font-weight:normal;font-stretch:normal;font-size:7.05555534px;font-family:sans-serif;-inkscape-font-specification:sans-serif;fill:#d9d9d9;stroke-width:0.26458332;fill-opacity:1"
           y="128.82907"
           x="63.166252"
           id="tspan856"
           sodipodi:role="line">INVESTPRIVATE </tspan></text>
      <text
         inkscape:export-ydpi="96"
         inkscape:export-xdpi="96"
         id="text858-8"
         y="135.86281"
         x="73.623718"
         style="font-style:normal;font-variant:normal;font-weight:bold;font-stretch:normal;font-size:4.23333311px;line-height:0.25;font-family:'Times New Roman';-inkscape-font-specification:'Times New Roman, Bold';letter-spacing:0px;word-spacing:0px;fill:#ffffff;fill-opacity:1;stroke:none;stroke-width:0.26458332"
         xml:space="preserve"><tspan
           style="font-style:normal;font-variant:normal;font-weight:normal;font-stretch:normal;font-size:4.93888855px;font-family:sans-serif;-inkscape-font-specification:sans-serif;fill:#d9d9d9;stroke-width:0.26458332;fill-opacity:1"
           y="135.86281"
           x="73.623718"
           id="tspan856-7"
           sodipodi:role="line">DETECTIVES PRIVADOS</tspan></text>
    </g>
  </g>
  <g
     inkscape:groupmode="layer"
     id="layer2"
     inkscape:label="Capa 2"
     transform="translate(0,-192)" />
</svg>
